<?xml version="1.0" encoding="UTF-8"?>
<svg xmlns="http://www.w3.org/2000/svg" xmlns:xlink="http://www.w3.org/1999/xlink" width="576pt" height="576pt" viewBox="0 0 576 576" version="1.1">
<g id="surface1">
<path style=" stroke:none;fill-rule:nonzero;fill:rgb(13.729858%,12.159729%,12.548828%);fill-opacity:1;" d="M 538.992188 277.324219 C 538.992188 415.945313 426.621094 528.316406 288 528.316406 C 149.378906 528.316406 37.007813 415.945313 37.007813 277.324219 C 37.007813 138.703125 149.378906 26.332031 288 26.332031 C 426.621094 26.332031 538.992188 138.703125 538.992188 277.324219 "/>
<path style="fill:none;stroke-width:5;stroke-linecap:butt;stroke-linejoin:miter;stroke:rgb(13.729858%,12.159729%,12.548828%);stroke-opacity:1;stroke-miterlimit:10;" d="M -0.0008125 -0.00021875 C -0.0008125 -138.621312 -112.371906 -250.992406 -250.993 -250.992406 C -389.614094 -250.992406 -501.985188 -138.621312 -501.985188 -0.00021875 C -501.985188 138.620875 -389.614094 250.991969 -250.993 250.991969 C -112.371906 250.991969 -0.0008125 138.620875 -0.0008125 -0.00021875 Z M -0.0008125 -0.00021875 " transform="matrix(1,0,0,-1,538.993,277.324)"/>
<path style=" stroke:none;fill-rule:nonzero;fill:rgb(100%,100%,100%);fill-opacity:1;" d="M 397.96875 430.90625 C 384.917969 439.132813 368.460938 436.484375 361.210938 424.984375 C 353.960938 413.484375 358.667969 397.492188 371.71875 389.265625 C 384.773438 381.035156 401.234375 383.6875 408.480469 395.183594 C 415.730469 406.683594 411.023438 422.675781 397.96875 430.90625 M 341.871094 341.914063 C 299.132813 368.855469 283.726563 421.21875 307.460938 458.867188 C 331.195313 496.515625 385.082031 505.199219 427.820313 478.253906 C 470.558594 451.3125 485.964844 398.953125 462.230469 361.300781 C 438.496094 323.652344 384.613281 314.972656 341.871094 341.914063 "/>
<path style="fill:none;stroke-width:3;stroke-linecap:butt;stroke-linejoin:miter;stroke:rgb(13.729858%,12.159729%,12.548828%);stroke-opacity:1;stroke-miterlimit:10;" d="M -0.00175 -0.00085 C -13.052531 -8.227413 -29.509562 -5.578975 -36.759562 5.921025 C -44.009562 17.421025 -39.302531 33.413212 -26.25175 41.639775 C -13.197062 49.870244 3.263875 47.2179 10.509969 35.721806 C 17.759969 24.221806 13.052938 8.229619 -0.00175 -0.00085 Z M -56.099406 88.991337 C -98.837687 62.049931 -114.243937 9.68665 -90.509562 -27.961788 C -66.775187 -65.610225 -12.888469 -74.293819 29.849813 -47.348506 C 72.588094 -20.4071 87.994344 31.952275 64.259969 69.604619 C 40.525594 107.253056 -13.357219 115.932744 -56.099406 88.991337 Z M -56.099406 88.991337 " transform="matrix(1,0,0,-1,397.9705,430.9054)"/>
<path style=" stroke:none;fill-rule:nonzero;fill:rgb(100%,100%,100%);fill-opacity:1;" d="M 370.265625 160.617188 C 362.75 161.804688 353.578125 161.4375 349.292969 161.160156 C 347.894531 161.070313 346.792969 159.957031 346.691406 158.558594 L 343.078125 109.371094 C 342.957031 107.714844 344.277344 106.3125 345.9375 106.351563 C 348.554688 106.414063 352.367188 106.582031 355.476563 107 C 362.976563 108.007813 389.210938 114.554688 393.355469 132.875 C 397.617188 151.726563 383.160156 158.578125 370.265625 160.617188 M 525.507813 324.945313 C 520.902344 318.644531 423.460938 222.394531 405.042969 204.21875 C 403.625 202.816406 404.054688 200.4375 405.882813 199.648438 C 412.398438 196.832031 425.6875 190.808594 433.472656 185.371094 C 453.066406 171.695313 459.769531 149.1875 453.433594 121.414063 C 443.824219 79.277344 377.285156 41.941406 314.527344 39.816406 C 303.652344 39.445313 293.742188 39.519531 288.972656 39.589844 C 287.347656 39.613281 286.089844 41.003906 286.21875 42.625 L 309.8125 339.945313 C 310.160156 344.351563 315.339844 346.539063 318.710938 343.679688 C 323.089844 339.96875 329.507813 335.269531 338.519531 330.261719 C 349.453125 324.1875 357.488281 321.648438 361.816406 320.609375 C 363.882813 320.109375 365.226563 318.152344 364.949219 316.042969 L 354.925781 240.007813 C 354.574219 237.339844 357.800781 235.742188 359.699219 237.648438 C 385.421875 263.464844 487.15625 365.535156 490.03125 367.789063 C 494.28125 371.113281 499.085938 371.667969 503.152344 367.234375 C 513.25 356.21875 529.398438 330.269531 525.507813 324.945313 "/>
<path style="fill:none;stroke-width:3;stroke-linecap:butt;stroke-linejoin:miter;stroke:rgb(13.729858%,12.159729%,12.548828%);stroke-opacity:1;stroke-miterlimit:10;" d="M 0.001725 -0.0003875 C -7.5139 -1.187887 -16.685775 -0.8207 -20.970931 -0.543356 C -22.369369 -0.453512 -23.470931 0.659769 -23.572494 2.058206 L -27.185775 51.245706 C -27.306869 52.901956 -25.986556 54.3043 -24.3264 54.265238 C -21.709212 54.202738 -17.896712 54.034769 -14.787337 53.6168 C -7.287337 52.608988 18.947038 46.062113 23.091569 27.7418 C 27.353288 8.890238 12.896256 2.038675 0.001725 -0.0003875 Z M 155.243913 -164.328512 C 150.638444 -158.027731 53.197038 -61.777731 34.779069 -43.60195 C 33.3611 -42.199606 33.790788 -39.8207 35.618913 -39.031637 C 42.134538 -36.215231 55.4236 -30.191794 63.208756 -24.754294 C 82.802506 -11.078512 89.505631 11.4293 83.169694 39.202738 C 73.560319 81.339456 7.021256 118.675394 -55.736556 120.800394 C -66.611556 121.171488 -76.521712 121.097269 -81.291244 121.026956 C -82.916244 121.003519 -84.174056 119.612894 -84.04515 117.9918 L -60.4514 -179.328512 C -60.103744 -183.734762 -54.924056 -185.922262 -51.552962 -183.062887 C -47.174056 -179.35195 -40.756087 -174.652731 -31.744369 -169.644919 C -20.810775 -163.5707 -12.775619 -161.031637 -8.447494 -159.992575 C -6.381087 -159.492575 -5.037337 -157.535544 -5.314681 -155.426169 L -15.338119 -79.391012 C -15.689681 -76.723044 -12.463119 -75.125387 -10.564681 -77.031637 C 15.157975 -102.848044 116.89235 -204.918356 119.76735 -207.172262 C 124.01735 -210.496481 128.822038 -211.051169 132.888444 -206.617575 C 142.9861 -195.60195 159.134538 -169.652731 155.243913 -164.328512 Z M 155.243913 -164.328512 " transform="matrix(1,0,0,-1,370.2639,160.6168)"/>
<path style=" stroke:none;fill-rule:nonzero;fill:rgb(100%,100%,100%);fill-opacity:1;" d="M 45.234375 303.839844 L 111.742188 280.15625 C 113.167969 279.648438 114.753906 280.148438 115.625 281.382813 C 123.566406 292.609375 160.949219 345.382813 162.234375 345.242188 C 163.480469 345.105469 180.847656 268.488281 183.742188 255.683594 C 183.996094 254.558594 184.808594 253.640625 185.894531 253.25 L 259.125 226.917969 C 261.214844 226.167969 263.445313 227.601563 263.632813 229.8125 L 291.996094 554.804688 C 292.183594 557.03125 290.195313 558.820313 288 558.40625 L 245.578125 550.332031 C 244.105469 550.050781 242.996094 548.835938 242.847656 547.34375 L 222.894531 357.09375 C 222.527344 353.359375 217.257813 352.90625 216.277344 356.527344 C 207.324219 389.691406 188.925781 457.472656 188.109375 457.617188 C 187.078125 457.796875 146.183594 404.78125 128.175781 381.359375 C 126.023438 378.5625 121.574219 380.539063 122.183594 384.015625 L 134.339844 453.316406 C 134.878906 456.382813 131.355469 458.5 128.925781 456.558594 C 119.605469 449.101563 102.621094 434.523438 89.042969 417.324219 C 59.773438 380.253906 45.960938 321.34375 43.058594 307.707031 C 42.707031 306.054688 43.640625 304.410156 45.234375 303.839844 "/>
<path style="fill:none;stroke-width:3;stroke-linecap:butt;stroke-linejoin:miter;stroke:rgb(13.729858%,12.159729%,12.548828%);stroke-opacity:1;stroke-miterlimit:10;" d="M 0.001075 0.00165625 L 66.508887 23.68525 C 67.934669 24.193062 69.520606 23.693062 70.3917 22.458687 C 78.333106 11.232125 115.715919 -41.541313 117.001075 -41.400688 C 118.247169 -41.263969 135.614356 35.353219 138.508887 48.157906 C 138.762794 49.282906 139.575294 50.200875 140.661231 50.5915 L 213.8917 76.923531 C 215.981544 77.673531 218.212012 76.239937 218.399512 74.029 L 246.762794 -250.963188 C 246.950294 -253.18975 244.962012 -254.978813 242.7667 -254.56475 L 200.344825 -246.490531 C 198.872169 -246.209281 197.762794 -244.994438 197.614356 -243.50225 L 177.661231 -53.25225 C 177.294044 -49.517875 172.024512 -49.06475 171.044044 -52.685844 C 162.090919 -85.849906 143.692481 -153.631156 142.876075 -153.775688 C 141.844825 -153.955375 100.950294 -100.93975 82.942481 -77.517875 C 80.790137 -74.721 76.340919 -76.697563 76.950294 -80.174125 L 89.106544 -149.474906 C 89.645606 -152.541313 86.122169 -154.6585 83.692481 -152.717094 C 74.372169 -145.260063 57.387794 -130.681938 43.809669 -113.482719 C 14.540137 -76.412406 0.727637 -17.50225 -2.174706 -3.865531 C -2.526269 -2.213188 -1.592675 -0.568656 0.001075 0.00165625 Z M 0.001075 0.00165625 " transform="matrix(1,0,0,-1,45.2333,303.8415)"/>
<path style="fill-rule:nonzero;fill:rgb(100%,100%,100%);fill-opacity:1;stroke-width:3;stroke-linecap:butt;stroke-linejoin:miter;stroke:rgb(13.729858%,12.159729%,12.548828%);stroke-opacity:1;stroke-miterlimit:10;" d="M -0.0017125 0.00185 C -0.3689 6.099506 11.302975 16.2206 17.748288 21.622944 C 22.283444 25.423725 29.478756 30.2831 35.377194 33.521381 C 38.896725 35.454975 43.236569 33.130756 43.588131 29.130756 L 51.619381 -62.197369 C 52.330319 -71.568463 58.16235 -75.232525 67.0061 -72.048931 L 88.197506 -64.447369 C 94.181881 -62.291119 98.010006 -56.43565 97.564694 -50.087994 C 95.802975 -25.048931 89.5686 61.099506 87.400631 89.794819 C 87.076413 94.130756 91.095944 97.490131 95.310788 96.423725 L 130.681881 90.322162 C 133.334225 89.650287 135.260006 87.357319 135.463131 84.630756 L 147.674069 -82.525494 C 148.119381 -88.880963 144.283444 -94.759869 138.279538 -96.908306 L 28.404538 -136.232525 C 19.5686 -139.392681 10.146725 -133.2794 9.435788 -123.923931 Z M -0.0017125 0.00185 " transform="matrix(1,0,0,-1,113.1814,114.1581)"/>
</g>
</svg>
